<?xml version="1.0" standalone="no"?>
<!DOCTYPE svg PUBLIC "-//W3C//DTD SVG 20010904//EN"
 "http://www.w3.org/TR/2001/REC-SVG-20010904/DTD/svg10.dtd">
<svg version="1.0" xmlns="http://www.w3.org/2000/svg"
 width="344.000000pt" height="344.000000pt" viewBox="0 0 344.000000 344.000000"
 preserveAspectRatio="xMidYMid meet">
<metadata>
Created by potrace 1.11, written by Peter Selinger 2001-2013
</metadata>
<g transform="translate(0.000000,344.000000) scale(0.100000,-0.100000)"
fill="#000000" stroke="none">
<path d="M2528 3365 c-2 -2 -123 -5 -270 -6 -240 -2 -268 -4 -282 -20 -20 -24
-712 -928 -1096 -1434 -63 -82 -194 -254 -291 -382 -167 -218 -205 -272 -197
-277 43 -28 2025 -1155 2076 -1180 85 -42 102 -44 137 -13 26 22 27 31 91 527
131 1030 175 1368 194 1500 11 74 40 302 65 505 25 204 56 461 70 571 14 111
25 204 25 208 0 7 -516 7 -522 1z m488 -57 c-3 -18 -13 -87 -21 -153 -9 -66
-38 -279 -65 -473 -28 -194 -66 -482 -86 -640 -19 -158 -46 -366 -59 -462 -13
-96 -31 -227 -39 -290 -87 -663 -158 -1178 -164 -1193 -6 -16 -16 -12 -87 34
-86 56 -151 95 -285 169 -47 26 -260 145 -475 265 -399 223 -485 271 -992 554
-161 90 -293 168 -293 173 0 5 69 100 153 211 243 320 388 510 523 687 69 91
177 233 240 315 62 83 227 299 365 480 138 182 253 336 256 343 4 9 117 12
520 12 l514 0 -5 -32z"/>
<path d="M2016 3227 c-11 -8 -16 -19 -12 -26 4 -7 -13 -40 -42 -79 -27 -37
-194 -272 -372 -522 -178 -250 -400 -563 -494 -695 -214 -300 -291 -414 -285
-419 12 -12 0 -28 495 668 110 154 202 285 206 290 4 7 36 3 90 -12 46 -13
117 -32 158 -43 137 -36 142 -39 136 -63 -3 -11 -12 -76 -21 -144 -22 -171
-105 -721 -123 -814 -5 -26 -7 -50 -4 -53 3 -3 -1 -5 -8 -5 -7 0 -31 -15 -54
-33 -23 -19 -67 -50 -98 -70 -32 -20 -58 -42 -58 -47 0 -6 5 -8 10 -5 6 3 10
1 10 -5 0 -13 -29 -6 -80 20 -19 10 -80 40 -135 65 -259 121 -481 228 -493
238 -15 12 -52 -18 -52 -43 0 -16 76 -55 850 -433 303 -148 668 -323 692 -330
11 -4 19 3 26 21 23 58 53 189 101 442 29 146 69 355 91 465 22 110 72 367
110 570 145 761 192 991 207 1014 13 21 13 25 -1 39 -12 12 -18 13 -30 3 -8
-7 -19 -11 -23 -8 -4 2 -176 8 -382 12 -205 3 -379 9 -385 11 -6 2 -20 -2 -30
-9z m631 -44 c143 -5 171 -8 162 -19 -6 -8 -15 -11 -20 -8 -5 3 -9 -1 -9 -8 0
-13 -88 -94 -315 -287 -66 -57 -133 -115 -150 -130 -16 -14 -37 -31 -45 -36
-9 -6 -5 0 9 12 31 28 22 39 -16 20 -36 -19 -102 -33 -188 -43 -27 -3 -56 -7
-64 -10 -14 -4 -11 56 9 211 5 39 12 113 15 165 3 52 8 108 11 124 l6 29 212
-7 c116 -3 289 -9 383 -13z m-656 -214 c-25 -194 -42 -301 -49 -294 -3 3 -28
-15 -56 -39 -51 -43 -156 -111 -209 -134 -16 -7 -25 -17 -21 -23 7 -12 -38 -5
-85 12 l-23 9 24 33 c13 17 116 162 227 320 112 158 205 286 208 284 2 -3 -5
-78 -16 -168z m672 21 c-30 -27 -45 -48 -25 -36 5 3 19 7 33 10 13 2 32 7 42
11 12 5 -12 -51 -79 -181 -161 -316 -303 -592 -374 -729 -134 -259 -219 -424
-315 -615 -54 -107 -103 -200 -108 -207 -6 -9 -13 -9 -27 -1 -13 8 -16 20 -13
47 6 51 43 331 48 361 2 14 24 171 49 350 26 179 48 335 51 347 3 12 60 71
128 131 281 252 611 542 616 542 3 0 -9 -14 -26 -30z m47 -386 c-44 -225 -92
-467 -106 -539 -14 -71 -38 -191 -54 -265 -42 -197 -188 -947 -195 -1002 -4
-27 -11 -48 -18 -48 -11 0 -231 106 -459 221 -60 29 -108 58 -108 63 0 5 88
181 196 390 274 531 351 680 514 1001 223 439 304 594 307 591 2 -2 -33 -187
-77 -412z m-902 -1377 c8 -10 6 -13 -11 -14 -12 0 -16 1 -9 4 6 3 10 9 6 14
-8 14 2 11 14 -4z m-4 -51 c-7 -18 -34 -22 -34 -5 0 5 5 7 10 4 6 -3 13 1 16
10 4 9 8 14 10 12 3 -2 2 -12 -2 -21z m-17 -32 c-3 -3 -12 -4 -19 -1 -8 3 -5
6 6 6 11 1 17 -2 13 -5z"/>
</g>
</svg>
